
        <svg xmlns="http://www.w3.org/2000/svg" xmlns:xlink="http://www.w3.org/1999/xlink" version="1.1" width="3171.4285714285716" height="1928.1494761355527" viewBox="0 0 3171.4285714285716 1928.1494761355527">
			
			<g transform="scale(8.571428571428571) translate(10, 10)">
				<defs id="SvgjsDefs7214"><linearGradient id="SvgjsLinearGradient7223"><stop id="SvgjsStop7224" stop-color="#905e26" offset="0"/><stop id="SvgjsStop7225" stop-color="#f5ec9b" offset="0.5"/><stop id="SvgjsStop7226" stop-color="#905e26" offset="1"/></linearGradient><linearGradient id="SvgjsLinearGradient7227"><stop id="SvgjsStop7228" stop-color="#905e26" offset="0"/><stop id="SvgjsStop7229" stop-color="#f5ec9b" offset="0.5"/><stop id="SvgjsStop7230" stop-color="#905e26" offset="1"/></linearGradient><linearGradient id="SvgjsLinearGradient7231"><stop id="SvgjsStop7232" stop-color="#905e26" offset="0"/><stop id="SvgjsStop7233" stop-color="#f5ec9b" offset="0.5"/><stop id="SvgjsStop7234" stop-color="#905e26" offset="1"/></linearGradient><linearGradient id="SvgjsLinearGradient7235"><stop id="SvgjsStop7236" stop-color="#905e26" offset="0"/><stop id="SvgjsStop7237" stop-color="#f5ec9b" offset="0.5"/><stop id="SvgjsStop7238" stop-color="#905e26" offset="1"/></linearGradient></defs><g id="SvgjsG7215" featureKey="symbolContainer" transform="matrix(0.6740885533921701,0,0,0.6740885533921701,106,0)" fill="#000"><path xmlns="http://www.w3.org/2000/svg" d="M102.174 199.588c53.8 0 97.413-43.613 97.413-97.413S155.974 4.762 102.174 4.762 4.761 48.375 4.761 102.175s43.614 97.413 97.413 97.413zm0-189.826c50.957 0 92.413 41.457 92.413 92.413s-41.456 92.413-92.413 92.413c-50.957 0-92.413-41.457-92.413-92.413S51.218 9.762 102.174 9.762z"/><path xmlns="http://www.w3.org/2000/svg" d="M102.174 191.585c49.38 0 89.41-40.03 89.41-89.41s-40.03-89.41-89.41-89.41c-49.38 0-89.41 40.03-89.41 89.41s40.03 89.41 89.41 89.41zm0-176.82c48.198 0 87.41 39.212 87.41 87.41s-39.212 87.41-87.41 87.41c-48.198 0-87.41-39.212-87.41-87.41s39.212-87.41 87.41-87.41z"/><path xmlns="http://www.w3.org/2000/svg" d="M102.174 204.35c56.339 0 102.174-45.835 102.174-102.175S158.513 0 102.174 0C45.835 0 0 45.835 0 102.175S45.835 204.35 102.174 204.35zm0-202.35c55.236 0 100.174 44.938 100.174 100.175S157.411 202.35 102.174 202.35C46.938 202.35 2 157.411 2 102.175S46.938 2 102.174 2z"/></g><g id="SvgjsG7216" featureKey="symbolFeature-0" transform="matrix(0.7942689198100592,0,0,0.7942689198100592,115.10040381927502,9.085966202849113)" fill="#000"><g xmlns="http://www.w3.org/2000/svg"><path d="M83.7,71.1c0.2,0,0.3,0,0.5-0.1l1.7-1c0.5-0.3,0.6-0.9,0.4-1.4c-0.3-0.5-0.9-0.6-1.4-0.4l-1.7,1     c-0.5,0.3-0.6,0.9-0.4,1.4C83,70.9,83.3,71.1,83.7,71.1z"/><path d="M92.4,66.1c0.2,0,0.3,0,0.5-0.1l1.7-1c0.5-0.3,0.6-0.9,0.4-1.4c-0.3-0.5-0.9-0.6-1.4-0.4l-1.7,1     c-0.5,0.3-0.6,0.9-0.4,1.4C91.7,65.9,92,66.1,92.4,66.1z"/><path d="M66.4,69l-1.7-1c-0.5-0.3-1.1-0.1-1.4,0.4c-0.3,0.5-0.1,1.1,0.4,1.4l1.7,1c0.2,0.1,0.3,0.1,0.5,0.1     c0.3,0,0.7-0.2,0.9-0.5C67,69.9,66.8,69.3,66.4,69z"/><path d="M57.6,64.1l-1.7-1c-0.5-0.3-1.1-0.1-1.4,0.4c-0.3,0.5-0.1,1.1,0.4,1.4l1.7,1c0.2,0.1,0.3,0.1,0.5,0.1     c0.3,0,0.7-0.2,0.9-0.5C58.3,65,58.1,64.4,57.6,64.1z"/><path d="M75,94c-0.6,0-1,0.4-1,1v2c0,0.6,0.4,1,1,1s1-0.4,1-1v-2C76,94.4,75.6,94,75,94z"/><path d="M75,84c-0.6,0-1,0.4-1,1v2c0,0.6,0.4,1,1,1s1-0.4,1-1v-2C76,84.4,75.6,84,75,84z"/><path d="M75,65.9c0.6,0,1-0.4,1-1v-2c0-0.6-0.4-1-1-1s-1,0.4-1,1v2C74,65.4,74.4,65.9,75,65.9z"/><path d="M75,55.9c0.6,0,1-0.4,1-1v-2c0-0.6-0.4-1-1-1s-1,0.4-1,1v2C74,55.4,74.4,55.9,75,55.9z"/><path d="M94.7,84.9l-1.7-1c-0.5-0.3-1.1-0.1-1.4,0.4c-0.3,0.5-0.1,1.1,0.4,1.4l1.7,1c0.2,0.1,0.3,0.1,0.5,0.1     c0.3,0,0.7-0.2,0.9-0.5C95.3,85.8,95.2,85.2,94.7,84.9z"/><path d="M86,80l-1.7-1c-0.5-0.3-1.1-0.1-1.4,0.4s-0.1,1.1,0.4,1.4l1.7,1c0.2,0.1,0.3,0.1,0.5,0.1c0.3,0,0.7-0.2,0.9-0.5     C86.6,80.9,86.4,80.3,86,80z"/><path d="M56.7,84.2l-1.7,1c-0.5,0.3-0.7,0.9-0.4,1.4c0.2,0.3,0.5,0.5,0.9,0.5c0.2,0,0.3,0,0.5-0.1l1.7-1c0.5-0.3,0.7-0.9,0.4-1.4     C57.8,84.1,57.1,83.9,56.7,84.2z"/><path d="M65.4,79.3l-1.7,1c-0.5,0.3-0.7,0.9-0.4,1.4c0.2,0.3,0.5,0.5,0.9,0.5c0.2,0,0.3,0,0.5-0.1l1.7-1c0.5-0.3,0.7-0.9,0.4-1.4     C66.5,79.2,65.9,79,65.4,79.3z"/><path d="M121.1,75c3.9-5.2,6.7-10.4,8-15.3c1.5-5.7,1.1-10.6-1.3-14.7c-4.6-7.8-15.8-10.8-29.8-9.2C92.4,23.1,84.2,15,75,15     c-9.2,0-17.4,8.1-23,20.8c-14-1.6-25.2,1.4-29.8,9.2c-2.4,4.1-2.8,9-1.3,14.7c1.3,5,4.1,10.2,8,15.3c-3.9,5.2-6.7,10.4-8,15.3     c-1.5,5.7-1.1,10.6,1.3,14.7c3.8,6.5,12.1,9.6,22.8,9.6c2.3,0,4.6-0.2,7.1-0.4c5.6,12.7,13.8,20.8,23,20.8     c9.2,0,17.4-8.1,23-20.8c2.4,0.3,4.8,0.4,7.1,0.4c10.7,0,19-3.2,22.8-9.6c2.4-4.1,2.8-9,1.3-14.7C127.8,85.4,125.1,80.2,121.1,75     z M105.2,37.3c9.9,0,17.5,2.9,20.9,8.8c2.1,3.6,2.5,8,1.1,13.1c-1.2,4.5-3.8,9.4-7.4,14.2c-3.2-4-7.2-8-11.7-11.8     c0.4-0.8,0.7-1.7,0.7-2.6c0-3-2.5-5.5-5.5-5.5c-1.1-5.7-2.7-11-4.6-15.8C101,37.4,103.1,37.3,105.2,37.3z M106.8,90.9     c0,1.9-1.6,3.5-3.5,3.5s-3.5-1.6-3.5-3.5s1.6-3.5,3.5-3.5S106.8,89,106.8,90.9z M103,85.4c-2.9,0.2-5.2,2.6-5.2,5.5     c0,0.9,0.2,1.8,0.6,2.5c-2.9,2-6,4-9.2,5.8c-3.2,1.8-6.4,3.4-9.6,4.9c-1-1.5-2.7-2.5-4.6-2.5c-1.9,0-3.6,1-4.6,2.5     c-3.2-1.5-6.4-3.1-9.6-4.9c-3.2-1.8-6.3-3.7-9.2-5.8c0.4-0.8,0.6-1.6,0.6-2.5c0-2.9-2.3-5.3-5.2-5.5c-0.3-3.4-0.5-6.8-0.5-10.4     c0-3.5,0.2-7,0.5-10.4c2.9-0.2,5.2-2.6,5.2-5.5c0-0.9-0.2-1.8-0.6-2.5c2.9-2,6-4,9.2-5.8c3.2-1.8,6.4-3.4,9.6-4.9     c1,1.5,2.7,2.5,4.6,2.5c1.9,0,3.6-1,4.6-2.5c3.2,1.5,6.4,3.1,9.6,4.9c3.2,1.8,6.2,3.7,9.1,5.7c-0.3,0.7-0.5,1.5-0.5,2.4     c0,2.9,2.3,5.3,5.2,5.5c0.3,3.4,0.5,7,0.5,10.6C103.4,78.5,103.3,82,103,85.4z M78.5,107.1c0,1.9-1.6,3.5-3.5,3.5     s-3.5-1.6-3.5-3.5s1.6-3.5,3.5-3.5S78.5,105.2,78.5,107.1z M46.7,87.4c1.9,0,3.5,1.6,3.5,3.5s-1.6,3.5-3.5,3.5     c-1.9,0-3.5-1.6-3.5-3.5S44.7,87.4,46.7,87.4z M43.2,59.1c0-1.9,1.6-3.5,3.5-3.5c1.9,0,3.5,1.6,3.5,3.5c0,1.9-1.6,3.5-3.5,3.5     C44.7,62.6,43.2,61,43.2,59.1z M71.5,42.9c0-1.9,1.6-3.5,3.5-3.5s3.5,1.6,3.5,3.5c0,1.9-1.6,3.5-3.5,3.5S71.5,44.8,71.5,42.9z      M103.3,62.5c-1.9,0-3.5-1.6-3.5-3.5s1.6-3.5,3.5-3.5s3.5,1.6,3.5,3.5S105.3,62.5,103.3,62.5z M99.5,54.9c-2.9-2-6.1-4-9.3-5.8     c-3.3-1.9-6.5-3.5-9.8-5c0.1-0.4,0.1-0.8,0.1-1.2c0-0.3,0-0.6-0.1-1c5.7-2,11.2-3.3,16.4-4c1.9,4.7,3.5,10.1,4.6,15.9     C100.7,54,100.1,54.4,99.5,54.9z M69.6,44.1c-3.3,1.5-6.5,3.1-9.8,5c-3.3,1.9-6.4,3.8-9.4,5.9c-0.5-0.5-1.2-0.9-1.8-1.1     c1.1-5.9,2.7-11.3,4.6-16c5.1,0.7,10.7,2.1,16.4,4c-0.1,0.3-0.1,0.6-0.1,1C69.5,43.3,69.5,43.7,69.6,44.1z M43,63.2     c0.6,0.5,1.3,0.9,2.1,1.2c-0.3,3.4-0.5,7-0.5,10.6c0,3.6,0.2,7.2,0.5,10.6c-0.8,0.2-1.5,0.6-2.1,1.2C38.6,83,34.7,79,31.5,75     C34.7,71,38.6,67,43,63.2z M50.4,95c3,2.1,6.1,4,9.4,5.9c3.3,1.9,6.5,3.5,9.8,5c-0.1,0.4-0.1,0.8-0.1,1.2c0,0.3,0,0.6,0.1,1     c-5.7,2-11.2,3.3-16.4,4c-1.9-4.8-3.5-10.2-4.6-16C49.2,95.9,49.9,95.5,50.4,95z M80.4,105.9c3.3-1.5,6.5-3.1,9.8-5     c3.3-1.9,6.4-3.8,9.4-5.9c0.5,0.5,1.2,0.9,1.8,1.1c-1.1,5.9-2.7,11.3-4.6,16c-5.1-0.7-10.7-2.1-16.4-4c0.1-0.3,0.1-0.6,0.1-1     C80.5,106.7,80.5,106.3,80.4,105.9z M107,86.8c-0.6-0.5-1.3-0.9-2.1-1.2c0.3-3.4,0.5-7,0.5-10.6c0-3.7-0.2-7.3-0.5-10.8     c0.7-0.2,1.4-0.6,2-1.1c4.5,3.8,8.4,7.8,11.6,11.9C115.3,79,111.4,83,107,86.8z M75,17c8.3,0,15.8,7.4,21,19.1     c-5.1,0.7-10.6,2.1-16.3,4c-1-1.6-2.7-2.7-4.8-2.7c-2,0-3.8,1.1-4.8,2.7c-5.6-1.9-11.1-3.3-16.3-4C59.2,24.4,66.7,17,75,17z      M22.8,59.1c-1.4-5.1-1-9.5,1.1-13.1c3.5-5.9,11.1-8.8,20.9-8.8c2,0,4.2,0.1,6.4,0.4c-1.9,4.8-3.5,10.1-4.6,15.9     c-3,0-5.4,2.5-5.4,5.5c0,0.9,0.2,1.7,0.6,2.5c-4.5,3.8-8.4,7.7-11.6,11.7C26.5,68.5,24,63.7,22.8,59.1z M23.9,104     c-2.1-3.6-2.5-8-1.1-13.1c1.2-4.5,3.8-9.4,7.4-14.2c3.2,4,7.1,8,11.6,11.7c-0.4,0.8-0.6,1.6-0.6,2.5c0,3,2.4,5.5,5.4,5.5     c1.1,5.8,2.7,11.2,4.6,15.9C38.3,113.8,28.1,111.1,23.9,104z M75,133c-8.3,0-15.8-7.4-21-19.1c5.1-0.7,10.6-2.1,16.3-4     c1,1.6,2.7,2.7,4.8,2.7c2,0,3.8-1.1,4.8-2.7c5.6,1.9,11.1,3.3,16.3,4C90.8,125.6,83.3,133,75,133z M126.1,104     c-4.2,7.1-14.4,9.8-27.3,8.4c1.9-4.8,3.5-10.1,4.6-15.9c3-0.1,5.4-2.5,5.4-5.5c0-0.9-0.2-1.7-0.6-2.5c4.5-3.8,8.4-7.7,11.6-11.7     c3.6,4.8,6.2,9.7,7.4,14.2C128.6,96,128.2,100.4,126.1,104z"/><path d="M75,69.5c-3.1,0-5.5,2.5-5.5,5.5s2.5,5.5,5.5,5.5s5.5-2.5,5.5-5.5S78.1,69.5,75,69.5z M75,78.5c-1.9,0-3.5-1.6-3.5-3.5     s1.6-3.5,3.5-3.5s3.5,1.6,3.5,3.5S76.9,78.5,75,78.5z"/></g></g><g id="SvgjsG7217" featureKey="nameFeature-0" transform="matrix(0.8700393842116618,0,0,0.8700393842116618,-1.205875137460882,148.09318505530905)" fill="#000"><path d="M13.027 40.39063 c-6.0547 0 -10.781 -2.9102 -11.641 -8.2031 l6.0547 -1.3867 c0.39063 3.1641 2.7148 4.8047 5.8203 4.8047 c2.3828 0 4.2773 -1.0547 4.2578 -3.4375 c-0.019531 -2.6563 -3.1445 -3.4961 -6.582 -4.5508 c-4.1406 -1.2891 -8.5742 -2.8125 -8.5742 -8.0078 c0 -5.2539 4.2969 -8.2227 9.9609 -8.2227 c4.9609 0 9.9609 2.0117 11.094 7.4219 l-5.6641 1.4063 c-0.52734 -2.8125 -2.4219 -4.043 -5.0781 -4.043 c-2.3633 0 -4.375 0.97656 -4.375 3.3008 c0 2.168 2.7734 2.8906 5.9766 3.8477 c4.2578 1.2891 9.2969 2.9297 9.2969 8.5547 c0 5.9961 -5.0195 8.5156 -10.547 8.5156 z M51.1179453125 11.777000000000001 l-9.2773 14.707 l0 13.516 l-5.8789 0 l0 -13.379 l-9.3359 -14.844 l6.4844 0 l5.7617 9.6094 l5.7813 -9.6094 l6.4648 0 z M75.322578125 11.777000000000001 l5.8398 0 l0 28.223 l-6.7773 0 l-12.5 -20.176 l0 20.176 l-5.8398 0 l0 -28.223 l6.6992 0 l12.578 20.059 l0 -20.059 z M101.9283671875 40.39063 c-8.3008 0 -14.434 -5.6445 -14.434 -14.512 s6.1328 -14.492 14.434 -14.492 c6.2891 0 11.328 3.2227 13.34 8.5742 l-5.4688 1.9922 c-1.25 -3.2813 -4.2383 -5.1758 -7.8711 -5.1758 c-4.8633 0 -8.5938 3.3984 -8.5938 9.1016 s3.7305 9.1211 8.5938 9.1211 c3.6328 0 6.6211 -1.9141 7.8711 -5.1953 l5.4688 1.9922 c-2.0117 5.3516 -7.0508 8.5938 -13.34 8.5938 z M138.8278125 11.777000000000001 l5.8594 0 l0 28.223 l-5.8594 0 l0 -11.602 l-11.934 0 l0 11.602 l-5.8594 0 l0 -28.223 l5.8594 0 l0 11.523 l11.934 0 l0 -11.523 z M164.306596875 40 l0 -28.223 l5.8594 0 l0 28.223 l-5.8594 0 z M197.6907421875 11.777000000000001 l5.8398 0 l0 28.223 l-6.7773 0 l-12.5 -20.176 l0 20.176 l-5.8398 0 l0 -28.223 l6.6992 0 l12.578 20.059 l0 -20.059 z M211.79683125 40 l0 -28.223 l10.215 0 c9.0039 0 13.457 5.6641 13.457 14.102 c0 8.457 -4.4531 14.121 -13.457 14.121 l-10.215 0 z M217.65623125 34.8242 l4.0625 0 c5.1953 0 7.5781 -3.2422 7.5781 -8.9453 s-2.3828 -8.9453 -7.5781 -8.9453 l-4.0625 0 l0 17.891 z M252.3686015625 40.39063 c-6.1914 0 -11.035 -3.1641 -11.035 -10.273 l0 -18.34 l5.8594 0 l0 17.539 c0 4.2969 2.2852 5.8984 5.1758 5.8984 c2.9102 0 5.2148 -1.6211 5.2148 -5.8984 l0 -17.539 l5.8594 0 l0 18.34 c0 7.1094 -4.8633 10.273 -11.074 10.273 z M280.497703125 40.39063 c-6.0547 0 -10.781 -2.9102 -11.641 -8.2031 l6.0547 -1.3867 c0.39063 3.1641 2.7148 4.8047 5.8203 4.8047 c2.3828 0 4.2773 -1.0547 4.2578 -3.4375 c-0.019531 -2.6563 -3.1445 -3.4961 -6.582 -4.5508 c-4.1406 -1.2891 -8.5742 -2.8125 -8.5742 -8.0078 c0 -5.2539 4.2969 -8.2227 9.9609 -8.2227 c4.9609 0 9.9609 2.0117 11.094 7.4219 l-5.6641 1.4063 c-0.52734 -2.8125 -2.4219 -4.043 -5.0781 -4.043 c-2.3633 0 -4.375 0.97656 -4.375 3.3008 c0 2.168 2.7734 2.8906 5.9766 3.8477 c4.2578 1.2891 9.2969 2.9297 9.2969 8.5547 c0 5.9961 -5.0195 8.5156 -10.547 8.5156 z M313.7846484375 11.777000000000001 l0 5.1563 l-6.6992 0 l0 23.066 l-5.8008 0 l0 -23.066 l-6.7383 0 l0 -5.1563 l19.238 0 z M334.08234375 40 l-7.3438 -12.422 l-1.6992 0 l0 12.422 l-5.8594 0 l0 -28.223 l10.234 0 c6.3867 0 9.082 3.7695 9.082 8.4375 c0 3.7891 -2.1484 6.25 -5.9766 7.0703 l8.4961 12.715 l-6.9336 0 z M325.03904375 16.641 l0 6.7383 l3.457 0 c3.125 0 4.3945 -1.3281 4.3945 -3.3594 c0 -2.0117 -1.2695 -3.3789 -4.3945 -3.3789 l-3.457 0 z M346.2743703125 40 l0 -28.223 l5.8594 0 l0 28.223 l-5.8594 0 z M376.748515625 16.934 l-10.469 0 l0 6.4063 l9.2773 0 l0 5.0977 l-9.2773 0 l0 6.3867 l10.469 0 l0 5.1758 l-16.367 0 l0 -28.223 l16.367 0 l0 5.1563 z M393.1197734375 40.39063 c-6.0547 0 -10.781 -2.9102 -11.641 -8.2031 l6.0547 -1.3867 c0.39063 3.1641 2.7148 4.8047 5.8203 4.8047 c2.3828 0 4.2773 -1.0547 4.2578 -3.4375 c-0.019531 -2.6563 -3.1445 -3.4961 -6.582 -4.5508 c-4.1406 -1.2891 -8.5742 -2.8125 -8.5742 -8.0078 c0 -5.2539 4.2969 -8.2227 9.9609 -8.2227 c4.9609 0 9.9609 2.0117 11.094 7.4219 l-5.6641 1.4063 c-0.52734 -2.8125 -2.4219 -4.043 -5.0781 -4.043 c-2.3633 0 -4.375 0.97656 -4.375 3.3008 c0 2.168 2.7734 2.8906 5.9766 3.8477 c4.2578 1.2891 9.2969 2.9297 9.2969 8.5547 c0 5.9961 -5.0195 8.5156 -10.547 8.5156 z"/></g><g id="SvgjsG7218" featureKey="sloganFeature-0" transform="matrix(0.8240741155479907,0,0,0.8240741155479907,22.49515796964467,188.30833989390752)" fill="#000"><path d="M7.6953 5.888999999999999 c2.7637 0 4.4824 2.0508 4.4824 4.5605 c0 2.5684 -1.7188 4.4922 -4.4824 4.4922 l-2.9395 0 l0 5.0586 l-2.9297 0 l0 -14.111 l5.8691 0 z M7.207 12.4902 c1.4648 0 2.1484 -0.81055 2.1484 -2.0801 c0 -1.2207 -0.68359 -2.0703 -2.1484 -2.0703 l-2.4512 0 l0 4.1504 l2.4512 0 z M23.53267109375 20 l-3.6719 -6.2109 l-0.84961 0 l0 6.2109 l-2.9297 0 l0 -14.111 l5.1172 0 c3.1934 0 4.541 1.8848 4.541 4.2188 c0 1.8945 -1.0742 3.125 -2.9883 3.5352 l4.248 6.3574 l-3.4668 0 z M19.01127109375 8.32 l0 3.3691 l1.7285 0 c1.5625 0 2.1973 -0.66406 2.1973 -1.6797 c0 -1.0059 -0.63477 -1.6895 -2.1973 -1.6895 l-1.7285 0 z M38.7746484375 8.467 l-5.2344 0 l0 3.2031 l4.6387 0 l0 2.5488 l-4.6387 0 l0 3.1934 l5.2344 0 l0 2.5879 l-8.1836 0 l0 -14.111 l8.1836 0 l0 2.5781 z M49.48489140625 20.19531 c-4.1504 0 -7.2168 -2.8223 -7.2168 -7.2559 s3.0664 -7.2461 7.2168 -7.2461 c3.1445 0 5.6641 1.6113 6.6699 4.2871 l-2.7344 0.99609 c-0.625 -1.6406 -2.1191 -2.5879 -3.9355 -2.5879 c-2.4316 0 -4.2969 1.6992 -4.2969 4.5508 s1.8652 4.5605 4.2969 4.5605 c1.8164 0 3.3105 -0.95703 3.9355 -2.5977 l2.7344 0.99609 c-1.0059 2.6758 -3.5254 4.2969 -6.6699 4.2969 z M60.000028125 20 l0 -14.111 l2.9297 0 l0 14.111 l-2.9297 0 z M72.70266484375 20.19531 c-3.0273 0 -5.3906 -1.4551 -5.8203 -4.1016 l3.0273 -0.69336 c0.19531 1.582 1.3574 2.4023 2.9102 2.4023 c1.1914 0 2.1387 -0.52734 2.1289 -1.7188 c-0.0097656 -1.3281 -1.5723 -1.748 -3.291 -2.2754 c-2.0703 -0.64453 -4.2871 -1.4063 -4.2871 -4.0039 c0 -2.627 2.1484 -4.1113 4.9805 -4.1113 c2.4805 0 4.9805 1.0059 5.5469 3.7109 l-2.832 0.70313 c-0.26367 -1.4063 -1.2109 -2.0215 -2.5391 -2.0215 c-1.1816 0 -2.1875 0.48828 -2.1875 1.6504 c0 1.084 1.3867 1.4453 2.9883 1.9238 c2.1289 0.64453 4.6484 1.4648 4.6484 4.2773 c0 2.998 -2.5098 4.2578 -5.2734 4.2578 z M90.3078515625 8.467 l-5.2344 0 l0 3.2031 l4.6387 0 l0 2.5488 l-4.6387 0 l0 3.1934 l5.2344 0 l0 2.5879 l-8.1836 0 l0 -14.111 l8.1836 0 l0 2.5781 z M110.850078125 20 l-1.0254 -2.9102 l-5.9277 0 l-1.0254 2.9102 l-2.998 0 l5.1953 -14.111 l3.584 0 l5.1953 14.111 l-2.998 0 z M104.755878125 14.6387 l4.209 0 l-2.0996 -5.9863 z M123.65969609375 20.19531 c-4.1504 0 -7.2168 -2.8223 -7.2168 -7.2559 s3.0664 -7.2461 7.2168 -7.2461 c3.1445 0 5.6641 1.6113 6.6699 4.2871 l-2.7344 0.99609 c-0.625 -1.6406 -2.1191 -2.5879 -3.9355 -2.5879 c-2.4316 0 -4.2969 1.6992 -4.2969 4.5508 s1.8652 4.5605 4.2969 4.5605 c1.8164 0 3.3105 -0.95703 3.9355 -2.5977 l2.7344 0.99609 c-1.0059 2.6758 -3.5254 4.2969 -6.6699 4.2969 z M140.4248328125 20.19531 c-4.1504 0 -7.2168 -2.8223 -7.2168 -7.2559 s3.0664 -7.2461 7.2168 -7.2461 c3.1445 0 5.6641 1.6113 6.6699 4.2871 l-2.7344 0.99609 c-0.625 -1.6406 -2.1191 -2.5879 -3.9355 -2.5879 c-2.4316 0 -4.2969 1.6992 -4.2969 4.5508 s1.8652 4.5605 4.2969 4.5605 c1.8164 0 3.3105 -0.95703 3.9355 -2.5977 l2.7344 0.99609 c-1.0059 2.6758 -3.5254 4.2969 -6.6699 4.2969 z M156.16456953125 20.19531 c-3.0957 0 -5.5176 -1.582 -5.5176 -5.1367 l0 -9.1699 l2.9297 0 l0 8.7695 c0 2.1484 1.1426 2.9492 2.5879 2.9492 c1.4551 0 2.6074 -0.81055 2.6074 -2.9492 l0 -8.7695 l2.9297 0 l0 9.1699 c0 3.5547 -2.4316 5.1367 -5.5371 5.1367 z M173.955034375 20 l-3.6719 -6.2109 l-0.84961 0 l0 6.2109 l-2.9297 0 l0 -14.111 l5.1172 0 c3.1934 0 4.541 1.8848 4.541 4.2188 c0 1.8945 -1.0742 3.125 -2.9883 3.5352 l4.248 6.3574 l-3.4668 0 z M169.433634375 8.32 l0 3.3691 l1.7285 0 c1.5625 0 2.1973 -0.66406 2.1973 -1.6797 c0 -1.0059 -0.63477 -1.6895 -2.1973 -1.6895 l-1.7285 0 z M190.45701171875 20 l-1.0254 -2.9102 l-5.9277 0 l-1.0254 2.9102 l-2.998 0 l5.1953 -14.111 l3.584 0 l5.1953 14.111 l-2.998 0 z M184.36281171875 14.6387 l4.209 0 l-2.0996 -5.9863 z M205.2004296875 5.888999999999999 l0 2.5781 l-3.3496 0 l0 11.533 l-2.9004 0 l0 -11.533 l-3.3691 0 l0 -2.5781 l9.6191 0 z M217.04369140625 8.467 l-5.2344 0 l0 3.2031 l4.6387 0 l0 2.5488 l-4.6387 0 l0 3.1934 l5.2344 0 l0 2.5879 l-8.1836 0 l0 -14.111 l8.1836 0 l0 2.5781 z M232.82961796875 20.19531 c-3.0273 0 -5.3906 -1.4551 -5.8203 -4.1016 l3.0273 -0.69336 c0.19531 1.582 1.3574 2.4023 2.9102 2.4023 c1.1914 0 2.1387 -0.52734 2.1289 -1.7188 c-0.0097656 -1.3281 -1.5723 -1.748 -3.291 -2.2754 c-2.0703 -0.64453 -4.2871 -1.4063 -4.2871 -4.0039 c0 -2.627 2.1484 -4.1113 4.9805 -4.1113 c2.4805 0 4.9805 1.0059 5.5469 3.7109 l-2.832 0.70313 c-0.26367 -1.4063 -1.2109 -2.0215 -2.5391 -2.0215 c-1.1816 0 -2.1875 0.48828 -2.1875 1.6504 c0 1.084 1.3867 1.4453 2.9883 1.9238 c2.1289 0.64453 4.6484 1.4648 4.6484 4.2773 c0 2.998 -2.5098 4.2578 -5.2734 4.2578 z M250.4348046875 8.467 l-5.2344 0 l0 3.2031 l4.6387 0 l0 2.5488 l-4.6387 0 l0 3.1934 l5.2344 0 l0 2.5879 l-8.1836 0 l0 -14.111 l8.1836 0 l0 2.5781 z M261.14504765625 20.19531 c-4.1504 0 -7.2168 -2.8223 -7.2168 -7.2559 s3.0664 -7.2461 7.2168 -7.2461 c3.1445 0 5.6641 1.6113 6.6699 4.2871 l-2.7344 0.99609 c-0.625 -1.6406 -2.1191 -2.5879 -3.9355 -2.5879 c-2.4316 0 -4.2969 1.6992 -4.2969 4.5508 s1.8652 4.5605 4.2969 4.5605 c1.8164 0 3.3105 -0.95703 3.9355 -2.5977 l2.7344 0.99609 c-1.0059 2.6758 -3.5254 4.2969 -6.6699 4.2969 z M276.884784375 20.19531 c-3.0957 0 -5.5176 -1.582 -5.5176 -5.1367 l0 -9.1699 l2.9297 0 l0 8.7695 c0 2.1484 1.1426 2.9492 2.5879 2.9492 c1.4551 0 2.6074 -0.81055 2.6074 -2.9492 l0 -8.7695 l2.9297 0 l0 9.1699 c0 3.5547 -2.4316 5.1367 -5.5371 5.1367 z M294.67524921875 20 l-3.6719 -6.2109 l-0.84961 0 l0 6.2109 l-2.9297 0 l0 -14.111 l5.1172 0 c3.1934 0 4.541 1.8848 4.541 4.2188 c0 1.8945 -1.0742 3.125 -2.9883 3.5352 l4.248 6.3574 l-3.4668 0 z M290.15384921875 8.32 l0 3.3691 l1.7285 0 c1.5625 0 2.1973 -0.66406 2.1973 -1.6797 c0 -1.0059 -0.63477 -1.6895 -2.1973 -1.6895 l-1.7285 0 z M309.9172265625 8.467 l-5.2344 0 l0 3.2031 l4.6387 0 l0 2.5488 l-4.6387 0 l0 3.1934 l5.2344 0 l0 2.5879 l-8.1836 0 l0 -14.111 l8.1836 0 l0 2.5781 z M329.199453125 5.888999999999999 l0 2.5781 l-3.3496 0 l0 11.533 l-2.9004 0 l0 -11.533 l-3.3691 0 l0 -2.5781 l9.6191 0 z M332.85891484375 20 l0 -14.111 l2.9297 0 l0 14.111 l-2.9297 0 z M357.0458515625 20 l-2.9199 0 l-0.92773 -10.635 l-3.5742 10.635 l-1.8945 0 l-3.5742 -10.635 l-0.9375 10.635 l-2.9297 0 l1.1816 -14.111 l4.1797 0 l3.0078 8.8574 l3.0469 -8.8574 l4.1797 0 z M369.73900390625 8.467 l-5.2344 0 l0 3.2031 l4.6387 0 l0 2.5488 l-4.6387 0 l0 3.1934 l5.2344 0 l0 2.5879 l-8.1836 0 l0 -14.111 l8.1836 0 l0 2.5781 z"/></g>
			</g>
		</svg>
	