<svg xmlns="http://www.w3.org/2000/svg" id="Layer_1" data-name="Layer 1" viewBox="0 0 162.14 58.74"><defs><style>.cls-1{fill:#e87a5c;}.cls-2{fill:#ec8a23;}.cls-3{fill:#e45a27;}.cls-4{fill:#211f1f;}.cls-5{fill:#7b853a;}</style></defs><path class="cls-1" d="M56.83,48.6h0"></path><path class="cls-1" d="M59.9,49.23h0"></path><path class="cls-1" d="M58.89,49h0"></path><path class="cls-1" d="M57.87,48.74h0"></path><path class="cls-2" d="M51.72,48.9a15.36,15.36,0,0,1,4.07-.37h0C53.49,40.88,48.06,33,40.15,26.71a55.73,55.73,0,0,0-17.39-4.18,56.59,56.59,0,0,0-15.82.93c-1.1,1.29-2.16,2.63-3.16,4a51.76,51.76,0,0,1,22.68,2.61C37.91,34,46.91,41,51.72,48.9"></path><path class="cls-1" d="M58.86,48.94c-.33-.08-.66-.14-1-.2.33.06.66.12,1,.2"></path><path class="cls-1" d="M56.75,48.59q-.48,0-1-.06.48,0,1,.06"></path><path class="cls-1" d="M57.8,48.73c-.32,0-.64-.1-1-.13.33,0,.65.08,1,.13"></path><path class="cls-1" d="M59.9,49.23c-.34-.11-.67-.2-1-.28.34.08.67.17,1,.28"></path><path class="cls-2" d="M36.22,23.83q2.06,1.38,3.93,2.88c9.76,4.17,16.91,10.92,19.39,18.61a47.68,47.68,0,0,0-8.89-20.95,55.54,55.54,0,0,0-16.06-8.8,56.15,56.15,0,0,0-15.38-3.19q-2.1,1.45-4.1,3.08a51.79,51.79,0,0,1,21.11,8.37"></path><path class="cls-1" d="M63.63,50.93l.36.22L63.81,51l-.18-.1"></path><path class="cls-2" d="M50.65,24.38c8.43,6.73,13.52,15.33,13.6,23.55a47.09,47.09,0,0,0-3.06-23.36A55.22,55.22,0,0,0,48,11.91a56.52,56.52,0,0,0-14-7.06q-2.41.86-4.74,1.91A51.87,51.87,0,0,1,47.4,20.31q1.74,2,3.25,4.07"></path><path class="cls-2" d="M61.19,24.57c7.25,9.83,9.74,20.88,6,29.34a15.72,15.72,0,0,1,2.34,3.46C78.07,46.8,75,27.31,61.83,11.83A56.58,56.58,0,0,0,50.09,1.37c-1.7.14-3.4.35-5.07.62A52,52,0,0,1,59.11,19.8q1.17,2.37,2.08,4.77"></path><path class="cls-3" d="M64.25,47.93c-.08-8.22-5.17-16.82-13.6-23.56a47.68,47.68,0,0,1,8.89,21c-2.48-7.69-9.63-14.44-19.39-18.61C48.06,33,53.49,40.89,55.74,48.52h0q.48,0,1,.06h.08c.33,0,.65.08,1,.13h.07c.33.06.66.12,1,.2h0c.34.08.67.17,1,.27H60l.73.25.1,0c.28.11.57.22.85.35s.4.18.59.27l.22.11.36.19.26.15.3.17.27.17.18.1.18.12.07.05c.19.12.38.25.56.39l.14.1.5.39.13.1.59.51,0,0c.2.19.39.37.58.57h0c.2.2.39.41.57.62,3.76-8.46,1.27-19.51-6-29.34a47.09,47.09,0,0,1,3.06,23.36"></path><path class="cls-4" d="M87.13,8.93l-.93,1.91h1.85Zm2.91,6-.92-1.84h-4l-.87,1.84h-3l6-11.36L93,14.92Z"></path><polygon class="cls-4" points="100.17 6.82 100.17 8.25 105.08 8.25 105.08 10.75 100.17 10.75 100.17 14.92 97.57 14.92 97.57 4.32 106.19 4.32 106.19 6.82 100.17 6.82"></polygon><path class="cls-4" d="M116.09,6.82h-2.63V9.33h2.63c1.13,0,1.47-.54,1.47-1.25s-.34-1.26-1.47-1.26m1.35,8.1-2-3.09h-1.94v3.09h-2.6V4.32h5.38a3.7,3.7,0,0,1,3.92,3.75,3.21,3.21,0,0,1-2.1,3.14l2.62,3.71Z"></path><rect class="cls-4" x="125.23" y="4.32" width="2.6" height="10.6"></rect><path class="cls-4" d="M138.44,15.12a5.45,5.45,0,0,1-5.65-5.5A5.67,5.67,0,0,1,142.93,6.3l-2.12,1.58a2.8,2.8,0,0,0-2.37-1.26,3,3,0,0,0,0,6,3,3,0,0,0,2.4-1.19l2.09,1.51a5.6,5.6,0,0,1-4.49,2.18"></path><path class="cls-4" d="M152.46,8.93l-.93,1.91h1.86Zm2.92,6-.93-1.84h-4l-.88,1.84h-3l6-11.36,5.82,11.36Z"></path><polygon class="cls-4" points="82.22 30.15 82.22 19.56 90.84 19.56 90.84 22.04 84.81 22.04 84.81 23.52 89.72 23.52 89.72 25.95 84.81 25.95 84.81 27.67 90.84 27.67 90.84 30.15 82.22 30.15"></polygon><polygon class="cls-4" points="97.42 24.8 97.42 30.15 94.84 30.15 94.84 18.93 101.16 24.84 101.16 19.56 103.75 19.56 103.75 30.71 97.42 24.8"></polygon><polygon class="cls-4" points="108.47 30.15 108.47 19.56 117.09 19.56 117.09 22.04 111.07 22.04 111.07 23.52 115.98 23.52 115.98 25.95 111.07 25.95 111.07 27.67 117.09 27.67 117.09 30.15 108.47 30.15"></polygon><path class="cls-4" d="M126.32,22.06h-2.63v2.51h2.63c1.14,0,1.47-.54,1.47-1.25s-.33-1.26-1.47-1.26m1.35,8.09-2-3.08h-1.94v3.08h-2.6V19.56h5.39a3.68,3.68,0,0,1,3.91,3.74,3.19,3.19,0,0,1-2.09,3.14l2.61,3.71Z"></path><path class="cls-4" d="M139.59,30.36a5.5,5.5,0,1,1,0-11,5.63,5.63,0,0,1,4.49,2.17L142,23.1a2.92,2.92,0,0,0-2.39-1.28,3,3,0,0,0,0,6.09,2.84,2.84,0,0,0,2.55-1.45h-3V23.94h5.92s0,.76,0,1.24a5.34,5.34,0,0,1-5.55,5.18"></path><polygon class="cls-4" points="154.01 26.34 154.01 30.15 151.42 30.15 151.42 26.34 147.06 19.56 150.17 19.56 152.73 23.88 155.28 19.56 158.35 19.56 154.01 26.34"></polygon><rect class="cls-4" x="82.22" y="34.79" width="2.6" height="10.6"></rect><polygon class="cls-4" points="92.48 40.04 92.48 45.39 89.9 45.39 89.9 34.17 96.22 40.07 96.22 34.79 98.81 34.79 98.81 45.95 92.48 40.04"></polygon><path class="cls-4" d="M108.73,37.29h-2.26v5.6h2.26a2.81,2.81,0,1,0,0-5.6m0,8.1h-4.84V34.79h4.84a5.31,5.31,0,1,1,0,10.6"></path><path class="cls-4" d="M123.23,39.4l-.93,1.91h1.86Zm2.92,6-.93-1.84h-4l-.88,1.84h-3l6-11.36,5.82,11.36Z"></path><path class="cls-4" d="M139.11,41.15h-3.34V43h3.34c.69,0,1-.39,1-.89a.92.92,0,0,0-1-.92m-.35-3.94h-3v1.57h3a.72.72,0,0,0,.83-.78.74.74,0,0,0-.83-.79m.56,8.18h-6.15V34.79H139a3,3,0,0,1,3.21,3,2.53,2.53,0,0,1-.8,1.89,2.79,2.79,0,0,1,1.35,2.45,3.22,3.22,0,0,1-3.4,3.24"></path><path class="cls-4" d="M152.46,39.4l-.92,1.91h1.85Zm2.92,6-.92-1.84h-4l-.87,1.84h-3l6-11.36,5.82,11.36Z"></path><path class="cls-5" d="M82.82,56.1A2.46,2.46,0,0,1,81,55.33l.58-.52a1.71,1.71,0,0,0,1.23.56c.58,0,1-.22,1-.61,0-.93-2.67,0-2.67-1.73,0-.73.77-1.24,1.71-1.24a2.24,2.24,0,0,1,1.65.63l-.57.51a1.48,1.48,0,0,0-1.12-.49c-.63,0-.87.3-.87.56,0,.92,2.67,0,2.67,1.71,0,.87-.87,1.39-1.82,1.39"></path><path class="cls-5" d="M87.45,52.51a1.43,1.43,0,1,0,1.41,1.43,1.44,1.44,0,0,0-1.41-1.43m0,3.59a2.16,2.16,0,1,1,2.22-2.16,2.17,2.17,0,0,1-2.22,2.16"></path><polygon class="cls-5" points="90.53 56.01 90.53 51.87 91.3 51.87 91.3 55.29 93.69 55.29 93.69 56.01 90.53 56.01"></polygon><path class="cls-5" d="M96.05,56.1a1.77,1.77,0,0,1-1.84-1.77V51.87H95v2.29a1.08,1.08,0,1,0,2.14,0V51.87h.77v2.46a1.77,1.77,0,0,1-1.84,1.77"></path><polygon class="cls-5" points="100.52 52.6 100.52 56.01 99.75 56.01 99.75 52.6 98.54 52.6 98.54 51.88 101.73 51.88 101.73 52.6 100.52 52.6"></polygon><rect class="cls-5" x="102.44" y="51.88" width="0.77" height="4.14"></rect><path class="cls-5" d="M106.29,52.51a1.43,1.43,0,1,0,1.42,1.43,1.44,1.44,0,0,0-1.42-1.43m0,3.59a2.16,2.16,0,1,1,2.22-2.16,2.16,2.16,0,0,1-2.22,2.16"></path><polygon class="cls-5" points="110.12 53.47 110.12 56.01 109.36 56.01 109.36 51.76 112.03 54.43 112.03 51.88 112.79 51.88 112.79 56.13 110.12 53.47"></polygon><path class="cls-5" d="M115.36,56.1a2.44,2.44,0,0,1-1.77-.77l.58-.52a1.69,1.69,0,0,0,1.22.56c.58,0,1-.22,1-.61,0-.93-2.67,0-2.67-1.73,0-.73.77-1.24,1.72-1.24a2.23,2.23,0,0,1,1.64.63l-.56.51a1.49,1.49,0,0,0-1.12-.49c-.64,0-.87.3-.87.56,0,.92,2.67,0,2.67,1.71,0,.87-.88,1.39-1.83,1.39"></path><polygon class="cls-5" points="120.54 52.6 120.54 53.53 122.75 53.53 122.75 54.25 120.54 54.25 120.54 56.01 119.78 56.01 119.78 51.88 123.22 51.88 123.22 52.6 120.54 52.6"></polygon><path class="cls-5" d="M125.74,52.51a1.43,1.43,0,1,0,1.42,1.43,1.44,1.44,0,0,0-1.42-1.43m0,3.59A2.16,2.16,0,1,1,128,53.94a2.16,2.16,0,0,1-2.22,2.16"></path><path class="cls-5" d="M131,52.6h-1.41V54H131a.7.7,0,1,0,0-1.38m.65,3.41-.86-1.3h-1.2V56h-.76V51.87h2.23a1.38,1.38,0,0,1,1.49,1.42,1.33,1.33,0,0,1-1,1.25l1,1.47Z"></path><path class="cls-5" d="M136.55,53.27,136,54.55h1.12ZM137.74,56l-.34-.77h-1.7l-.35.77h-.81l2-4.24,2,4.24Z"></path><polygon class="cls-5" points="139.97 52.6 139.97 53.53 142.18 53.53 142.18 54.25 139.97 54.25 139.97 56.01 139.21 56.01 139.21 51.88 142.65 51.88 142.65 52.6 139.97 52.6"></polygon><path class="cls-5" d="M145.52,52.6h-1.41V54h1.41a.7.7,0,1,0,0-1.38m.65,3.41-.86-1.3h-1.2V56h-.77V51.87h2.24a1.38,1.38,0,0,1,1.49,1.42,1.33,1.33,0,0,1-1,1.25l1,1.47Z"></path><rect class="cls-5" x="147.92" y="51.88" width="0.76" height="4.14"></rect><path class="cls-5" d="M151.77,56.1a2.16,2.16,0,1,1,0-4.31,2.22,2.22,0,0,1,1.77.85l-.64.47a1.34,1.34,0,0,0-1.13-.6,1.43,1.43,0,0,0,0,2.86,1.41,1.41,0,0,0,1.15-.57l.62.45a2.22,2.22,0,0,1-1.77.85"></path><path class="cls-5" d="M155.76,53.27l-.56,1.28h1.11ZM157,56l-.34-.77H154.9l-.34.77h-.82l2-4.24,2,4.24Z"></path></svg>